<?xml version="1.0" encoding="UTF-8"?>
<svg version="1.1" xmlns="http://www.w3.org/2000/svg" width="551" height="153">
<path d="M0 0 C181.83 0 363.66 0 551 0 C551 50.49 551 100.98 551 153 C369.17 153 187.34 153 0 153 C0 102.51 0 52.02 0 0 Z " fill="#000000" transform="translate(0,0)"/>
<path d="M0 0 C8.971875 -0.0928125 8.971875 -0.0928125 18.125 -0.1875 C20.00203613 -0.21481201 21.87907227 -0.24212402 23.81298828 -0.27026367 C25.31542316 -0.27903275 26.81786521 -0.28667569 28.3203125 -0.29296875 C29.47261353 -0.3159906 29.47261353 -0.3159906 30.64819336 -0.33947754 C35.51314194 -0.34182776 38.76456574 0.34838265 43 3 C46.91313644 7.37642532 46.48209637 12.37106276 46.4375 17.9375 C46.4674707 19.25911133 46.4674707 19.25911133 46.49804688 20.60742188 C46.49387496 26.17692414 45.91605833 29.71229466 42 34 C39.86108398 34.65209961 39.86108398 34.65209961 38 35 C38.6496875 36.14339844 39.299375 37.28679687 39.96875 38.46484375 C40.81261164 39.95566598 41.65635558 41.44655484 42.5 42.9375 C42.92925781 43.69224609 43.35851562 44.44699219 43.80078125 45.22460938 C44.20683594 45.94326172 44.61289062 46.66191406 45.03125 47.40234375 C45.59682617 48.39995728 45.59682617 48.39995728 46.17382812 49.41772461 C47 51 47 51 47 52 C42.05 52 37.1 52 32 52 C30.66141476 49.71125827 29.32898986 47.41930344 28 45.125 C27.6184375 44.47402344 27.236875 43.82304688 26.84375 43.15234375 C24 38.2265625 24 38.2265625 24 36 C20.37 36 16.74 36 13 36 C13 41.28 13 46.56 13 52 C8.71 52 4.42 52 0 52 C0 34.84 0 17.68 0 0 Z " fill="#F8F8F8" transform="translate(268,51)"/>
<path d="M0 0 C4.95 0 9.9 0 15 0 C15.81984375 1.50691406 16.6396875 3.01382813 17.484375 4.56640625 C18.57287895 6.56512471 19.66142272 8.56382148 20.75 10.5625 C21.28882813 11.55314453 21.82765625 12.54378906 22.3828125 13.56445312 C22.91132813 14.53447266 23.43984375 15.50449219 23.984375 16.50390625 C24.46616211 17.38892822 24.94794922 18.2739502 25.44433594 19.18579102 C27.26300462 22.4757775 29.13491568 25.73610244 31 29 C31.33 19.43 31.66 9.86 32 0 C36.62 0 41.24 0 46 0 C46 17.49 46 34.98 46 53 C41.05 53 36.1 53 31 53 C29.51886719 50.34517578 29.51886719 50.34517578 28.0078125 47.63671875 C27.04810271 45.91897731 26.08838417 44.20124074 25.12841797 42.48364258 C24.46261118 41.29183222 23.79724231 40.0997771 23.13232422 38.9074707 C22.17531258 37.19157316 21.21658348 35.47663386 20.2578125 33.76171875 C19.6817627 32.73006592 19.10571289 31.69841309 18.51220703 30.63549805 C17.41061848 28.7156323 16.22780377 26.84170566 15 25 C14.67 34.24 14.34 43.48 14 53 C9.38 53 4.76 53 0 53 C0 35.51 0 18.02 0 0 Z " fill="#F1F1F1" transform="translate(460,50)"/>
<path d="M0 0 C13.86 0 27.72 0 42 0 C42 3.63 42 7.26 42 11 C32.76 11 23.52 11 14 11 C14 14.3 14 17.6 14 21 C21.26 21 28.52 21 36 21 C36 24.63 36 28.26 36 32 C28.74 32 21.48 32 14 32 C14 35.3 14 38.6 14 42 C23.24 42 32.48 42 42 42 C42 45.63 42 49.26 42 53 C28.14 53 14.28 53 0 53 C0 35.51 0 18.02 0 0 Z " fill="#EFEFEF" transform="translate(205,50)"/>
<path d="M0 0 C13.53 0 27.06 0 41 0 C41 3.3 41 6.6 41 10 C32.09 10 23.18 10 14 10 C14 13.3 14 16.6 14 20 C21.26 20 28.52 20 36 20 C36 23.63 36 27.26 36 31 C28.74 31 21.48 31 14 31 C14 34.3 14 37.6 14 41 C23.24 41 32.48 41 42 41 C42 44.63 42 48.26 42 52 C28.14 52 14.28 52 0 52 C0 34.84 0 17.68 0 0 Z " fill="#F3F3F3" transform="translate(398,51)"/>
<path d="M0 0 C1.12138618 0.00848969 1.12138618 0.00848969 2.26542664 0.01715088 C4.63985786 0.03944032 7.01274813 0.08961844 9.38671875 0.140625 C11.00193124 0.16069981 12.61716752 0.17894887 14.23242188 0.1953125 C18.18027608 0.23928014 22.12698667 0.30825239 26.07421875 0.390625 C26.07421875 3.690625 26.07421875 6.990625 26.07421875 10.390625 C25.29183838 10.41568115 24.50945801 10.4407373 23.70336914 10.46655273 C20.18096926 10.58212288 16.65886315 10.70502449 13.13671875 10.828125 C11.90501953 10.86744141 10.67332031 10.90675781 9.40429688 10.94726562 C7.64956055 11.01010742 7.64956055 11.01010742 5.859375 11.07421875 C4.23334351 11.12920532 4.23334351 11.12920532 2.57446289 11.18530273 C0.13495575 11.11426765 0.13495575 11.11426765 -0.92578125 12.390625 C-1.02571657 14.4511781 -1.05659031 16.5151509 -1.05859375 18.578125 C-1.05988281 19.83367187 -1.06117188 21.08921875 -1.0625 22.3828125 C-1.06040527 23.03991211 -1.05831055 23.69701172 -1.05615234 24.37402344 C-1.05080359 26.38223835 -1.05609816 28.39022959 -1.0625 30.3984375 C-1.06056641 32.28175781 -1.06056641 32.28175781 -1.05859375 34.203125 C-1.05746582 35.36457031 -1.05633789 36.52601562 -1.05517578 37.72265625 C-1.22915599 40.31125784 -1.22915599 40.31125784 0.07421875 41.390625 C2.07386857 41.47820503 4.07657985 41.49759076 6.078125 41.48828125 C7.29306641 41.48505859 8.50800781 41.48183594 9.75976562 41.47851562 C11.03916016 41.47013672 12.31855469 41.46175781 13.63671875 41.453125 C15.56161133 41.44635742 15.56161133 41.44635742 17.52539062 41.43945312 C20.70837897 41.42762045 23.89127637 41.41113568 27.07421875 41.390625 C27.10110026 43.03637066 27.12055998 44.68223913 27.13671875 46.328125 C27.14832031 47.24464844 27.15992188 48.16117188 27.171875 49.10546875 C27.07421875 51.390625 27.07421875 51.390625 26.07421875 52.390625 C18.30340199 53.36347841 10.40000491 53.52387029 2.57421875 53.640625 C1.82148682 53.6619751 1.06875488 53.6833252 0.29321289 53.70532227 C-4.5148639 53.73483284 -7.75901049 53.04449866 -11.92578125 50.390625 C-13.73828125 47.828125 -13.73828125 47.828125 -14.92578125 45.390625 C-15.25578125 44.730625 -15.58578125 44.070625 -15.92578125 43.390625 C-16.04865988 40.97996969 -16.11410907 38.5993002 -16.12890625 36.1875 C-16.13460632 35.47209045 -16.1403064 34.75668091 -16.1461792 34.01959229 C-16.15563195 32.50314818 -16.16216428 30.98668352 -16.16601562 29.47021484 C-16.17568592 27.16336527 -16.20669022 24.8574203 -16.23828125 22.55078125 C-16.24481514 21.07552611 -16.25006409 19.60026461 -16.25390625 18.125 C-16.26625305 17.4404071 -16.27859985 16.75581421 -16.2913208 16.05047607 C-16.26410853 10.12240189 -14.76029928 6.35774156 -10.73364258 2.04003906 C-7.11814264 -0.08380387 -4.06947371 -0.1170283 0 0 Z " fill="#F1F1F1" transform="translate(157.92578125,50.609375)"/>
<path d="M0 0 C8.64423476 5.31033719 15.73794645 12.25131939 20.49609375 21.2578125 C18.52534949 23.62270561 16.53252937 25.95013915 14.49609375 28.2578125 C13.83480469 29.010625 13.17351562 29.7634375 12.4921875 30.5390625 C11.81285156 31.27125 11.13351563 32.0034375 10.43359375 32.7578125 C9.80324219 33.44875 9.17289063 34.1396875 8.5234375 34.8515625 C6.49609375 36.2578125 6.49609375 36.2578125 4.23779297 36.19848633 C0.46508988 34.90407627 -1.73152994 32.45114475 -4.3984375 29.61328125 C-4.94948654 29.04708572 -5.50053558 28.4808902 -6.06828308 27.89753723 C-8.41659252 25.48414743 -10.74072441 23.04797567 -13.06665039 20.61303711 C-14.77290265 18.83384142 -16.49150601 17.06722923 -18.2109375 15.30078125 C-18.72268021 14.75584518 -19.23442291 14.21090912 -19.76167297 13.64945984 C-23.57754145 9.73351401 -27.52392613 7.45820608 -32.50390625 5.2578125 C-33.33277344 4.84789062 -34.16164063 4.43796875 -35.015625 4.015625 C-38.45006921 2.96965612 -41.76624169 3.04448305 -45.31640625 3.1328125 C-46.00927734 3.14183594 -46.70214844 3.15085937 -47.41601562 3.16015625 C-49.1121302 3.18355093 -50.80806496 3.21941609 -52.50390625 3.2578125 C-39.68016276 -9.12373294 -14.811313 -8.07711316 0 0 Z " fill="#D07C0F" transform="translate(106.50390625,29.7421875)"/>
<path d="M0 0 C0.54043945 0.70125 1.08087891 1.4025 1.63769531 2.125 C4.20396422 5.24823095 6.95329017 8.13330728 9.796875 11 C10.34933899 11.55816406 10.90180298 12.11632812 11.4710083 12.69140625 C12.63617348 13.86597355 13.80276485 15.03912761 14.97070312 16.2109375 C16.73778343 17.98771638 18.49388821 19.77488845 20.25 21.5625 C32.20421331 33.7962265 32.20421331 33.7962265 48.3046875 38.1953125 C49.82824867 38.18217835 51.35175194 38.15856309 52.875 38.125 C53.65875 38.11597656 54.4425 38.10695312 55.25 38.09765625 C57.16680055 38.07428063 59.08344191 38.03841653 61 38 C51.30762239 46.4944433 38.88458768 47.96202844 26.46484375 47.41796875 C17.23822572 46.72261248 7.77071751 43.52148865 1 37 C-4.59583522 28.63979535 -5.9527982 19.9166234 -5 10 C-3.90920386 6.5144105 -2.63717881 2.63717881 0 0 Z " fill="#D07C0F" transform="translate(50,79)"/>
<path d="M0 0 C6.37519828 -0.345509 11.25935249 1.51415146 16.984375 4.19140625 C16.984375 5.18140625 16.984375 6.17140625 16.984375 7.19140625 C15.52880859 8.5090332 15.52880859 8.5090332 13.5078125 9.8671875 C8.7315799 13.27412116 4.713119 17.2020186 0.609375 21.37890625 C-0.45603516 22.4452832 -0.45603516 22.4452832 -1.54296875 23.53320312 C-4.32523509 26.33922695 -6.81661533 28.89289175 -9.015625 32.19140625 C-9.675625 32.19140625 -10.335625 32.19140625 -11.015625 32.19140625 C-11.263125 32.72765625 -11.510625 33.26390625 -11.765625 33.81640625 C-13.015625 36.19140625 -13.015625 36.19140625 -14.953125 38.94140625 C-20.45651957 47.61342194 -20.36426775 55.274457 -20.015625 65.19140625 C-22.9823741 62.66706711 -24.17524684 59.95245114 -25.640625 56.37890625 C-26.06601562 55.36183594 -26.49140625 54.34476563 -26.9296875 53.296875 C-31.43778831 40.40500399 -29.35547846 25.77204732 -23.578125 13.62890625 C-19.73973192 6.620159 -15.41976316 3.90625691 -8.015625 1.19140625 C-5.3056315 0.51390788 -2.76847525 0.26289784 0 0 Z " fill="#D07C0F" transform="translate(60.015625,37.80859375)"/>
<path d="M0 0 C14.52 0 29.04 0 44 0 C44 3.3 44 6.6 44 10 C39.05 10 34.1 10 29 10 C29 23.86 29 37.72 29 52 C24.38 52 19.76 52 15 52 C15 38.14 15 24.28 15 10 C10.05 10 5.1 10 0 10 C0 6.7 0 3.4 0 0 Z " fill="#F5F5F5" transform="translate(333,51)"/>
<path d="M0 0 C2.18507102 1.02807509 3.49864984 2.12547945 5.17919922 3.85644531 C5.75283203 4.43974609 6.32646484 5.02304688 6.91748047 5.62402344 C7.79726562 6.54151367 7.79726562 6.54151367 8.69482422 7.47753906 C9.29681641 8.09306641 9.89880859 8.70859375 10.51904297 9.34277344 C12.00116803 10.86018719 13.47392092 12.38674503 14.94482422 13.91503906 C12.78996309 19.74583977 10.08294231 22.84598001 4.44482422 25.66503906 C-5.35623354 29.16541684 -14.79102141 29.09125991 -24.28955078 24.79003906 C-25.16353516 24.35691406 -25.16353516 24.35691406 -26.05517578 23.91503906 C-26.05517578 23.25503906 -26.05517578 22.59503906 -26.05517578 21.91503906 C-24.69150501 21.04904235 -23.32751757 20.18354216 -21.96240234 19.31982422 C-16.92366975 15.60849967 -12.78568479 10.57645293 -8.51220703 6.03027344 C-7.74005859 5.23298828 -6.96791016 4.43570313 -6.17236328 3.61425781 C-5.47739746 2.88037842 -4.78243164 2.14649902 -4.06640625 1.39038086 C-2.05517578 -0.08496094 -2.05517578 -0.08496094 0 0 Z " fill="#CF7C0F" transform="translate(112.05517578125,84.0849609375)"/>
<path d="M0 0 C2.77109307 -0.05392397 5.54113818 -0.09363455 8.3125 -0.125 C9.09818359 -0.14175781 9.88386719 -0.15851562 10.69335938 -0.17578125 C11.45068359 -0.18222656 12.20800781 -0.18867187 12.98828125 -0.1953125 C13.68477783 -0.20578613 14.38127441 -0.21625977 15.09887695 -0.22705078 C17 0 17 0 20 2 C20.3984375 4.49609375 20.3984375 4.49609375 20.375 7.4375 C20.38273437 8.40558594 20.39046875 9.37367187 20.3984375 10.37109375 C19.9342442 13.43385933 19.39184187 14.12347503 17 16 C15.09887695 16.34057617 15.09887695 16.34057617 12.98828125 16.29296875 C12.23095703 16.28330078 11.47363281 16.27363281 10.69335938 16.26367188 C9.90767578 16.23853516 9.12199219 16.21339844 8.3125 16.1875 C7.11657227 16.16719727 7.11657227 16.16719727 5.89648438 16.14648438 C3.93070033 16.11117089 1.96526418 16.05736447 0 16 C0 10.72 0 5.44 0 0 Z " fill="#0D0D0D" transform="translate(281,61)"/>
</svg>
